<?xml version="1.0" standalone="no"?>
<!DOCTYPE svg PUBLIC "-//W3C//DTD SVG 20010904//EN"
 "http://www.w3.org/TR/2001/REC-SVG-20010904/DTD/svg10.dtd">
<svg version="1.0" xmlns="http://www.w3.org/2000/svg"
 width="274.000000pt" height="274.000000pt" viewBox="0 0 274.000000 274.000000"
 preserveAspectRatio="xMidYMid meet">
<metadata>
Created by potrace 1.11, written by Peter Selinger 2001-2013
</metadata>
<g transform="translate(0.000000,274.000000) scale(0.100000,-0.100000)"
fill="#000000" stroke="none">
<path d="M1755 2728 c-3 -7 -4 -400 -3 -873 l3 -860 102 -5 c119 -6 119 1 -7
-110 -47 -41 -107 -96 -135 -122 -27 -25 -61 -56 -75 -68 -14 -12 -65 -59
-115 -104 -49 -46 -106 -97 -125 -113 l-35 -31 -45 40 c-25 22 -65 59 -90 82
-25 22 -92 84 -150 136 -58 52 -110 100 -116 105 -42 38 -180 163 -197 177
-18 17 -14 17 104 20 l124 3 1 850 c1 468 -1 856 -3 863 -9 23 -30 12 -104
-59 -99 -95 -478 -462 -556 -538 l-63 -61 0 -558 c0 -673 4 -709 103 -907 136
-275 411 -488 722 -561 39 -9 79 -18 90 -21 47 -12 314 -10 390 4 256 44 492
173 654 358 56 64 121 158 145 209 44 96 57 131 78 207 l23 84 0 930 0 930
-358 3 c-281 2 -359 0 -362 -10z"/>
</g>
</svg>
